<?xml version="1.0" encoding="UTF-8" standalone="no"?>
<!-- Generator: Adobe Illustrator 15.1.0, SVG Export Plug-In . SVG Version: 6.00 Build 0)  -->

<svg
   xmlns:dc="http://purl.org/dc/elements/1.1/"
   xmlns:cc="http://creativecommons.org/ns#"
   xmlns:rdf="http://www.w3.org/1999/02/22-rdf-syntax-ns#"
   xmlns:svg="http://www.w3.org/2000/svg"
   xmlns="http://www.w3.org/2000/svg"
   xmlns:sodipodi="http://sodipodi.sourceforge.net/DTD/sodipodi-0.dtd"
   xmlns:inkscape="http://www.inkscape.org/namespaces/inkscape"
   version="1.1"
   id="Layer_1"
   x="0px"
   y="0px"
   width="40"
   height="40"
   viewBox="0 0 40 39.999999"
   enable-background="new 0 0 87.318 83.411"
   xml:space="preserve"
   inkscape:version="0.48.4 r9939"
   sodipodi:docname="menu.svg"><metadata
   id="metadata14"><rdf:RDF><cc:Work
       rdf:about=""><dc:format>image/svg+xml</dc:format><dc:type
         rdf:resource="http://purl.org/dc/dcmitype/StillImage" /><dc:title></dc:title></cc:Work></rdf:RDF></metadata><defs
   id="defs12" /><sodipodi:namedview
   pagecolor="#ffffff"
   bordercolor="#666666"
   borderopacity="1"
   objecttolerance="10"
   gridtolerance="10"
   guidetolerance="10"
   inkscape:pageopacity="0"
   inkscape:pageshadow="2"
   inkscape:window-width="1360"
   inkscape:window-height="716"
   id="namedview10"
   showgrid="false"
   inkscape:zoom="5.6587259"
   inkscape:cx="11.153002"
   inkscape:cy="24.14453"
   inkscape:window-x="-8"
   inkscape:window-y="-8"
   inkscape:window-maximized="1"
   inkscape:current-layer="MENU" />
<g
   id="MENU"
   transform="translate(0,-43.411003)">
	<path
   d="M 38.686894,57.303338 H 1.3140225 C 0.58803309,57.303338 0,58.017206 0,58.899108 v 9.064405 c 0,0.880789 0.58757479,1.59577 1.3140225,1.59577 H 38.686894 C 39.411966,69.559283 40,68.844302 40,67.963513 v -9.064405 c 4.58e-4,-0.881902 -0.588034,-1.595771 -1.313106,-1.595771 z"
   id="path4"
   style="fill:#e6e6e6"
   inkscape:connector-curvature="0" />
	<path
   d="m 38.686894,72.414759 c 0.151248,0 0.276829,0.150229 0.276829,0.336068 v 9.064405 c 0,0.185282 -0.125123,0.336068 -0.276829,0.336068 H 1.3140225 c -0.1526228,0 -0.2768293,-0.150786 -0.2768293,-0.336068 v -9.063849 c 0,-0.186396 0.1237482,-0.336068 0.2768293,-0.336068 H 38.686894 m 0,-1.259703 H 1.3140225 C 0.58803309,71.155612 0,71.869482 0,72.751383 v 9.064405 c 0,0.880789 0.58757479,1.595214 1.3140225,1.595214 H 38.686894 C 39.411966,83.411002 40,82.696577 40,81.815788 v -9.064405 c 4.58e-4,-0.881902 -0.588034,-1.595771 -1.313106,-1.595771 l 0,0 z"
   id="path6"
   style="fill:#e6e6e6"
   inkscape:connector-curvature="0" />
	<path
   d="M 38.686894,43.411002 H 1.3140225 C 0.58803309,43.411002 0,44.124871 0,45.006772 v 0.04062 9.023786 0.04005 c 0,0.881347 0.58757479,1.595772 1.3140225,1.595772 H 38.686894 C 39.411966,55.706999 40,54.992574 40,54.111227 v -0.04005 -9.02323 -0.04117 c 4.58e-4,-0.881902 -0.588034,-1.595771 -1.313106,-1.595771 z m -24.93022,9.973571 -0.418452,-5.172904 -1.028027,5.172904 H 10.950798 L 9.8801476,48.211669 9.5052364,53.384573 H 8.3025876 l 0.5573243,-7.743497 h 1.6985591 l 1.063776,5.288634 1.054609,-5.288634 h 1.689851 l 0.592616,7.743497 h -1.202649 z m 6.081536,-6.346919 h -2.518504 c -0.214956,0 -0.348329,0.06342 -0.40012,0.19029 -0.03529,0.09903 -0.0527,0.233133 -0.0527,0.402283 v 1.205729 l 2.579004,0.106272 v 1.226319 l -2.579004,0.09515 v 1.206287 c 0,0.267075 0.06095,0.430102 0.182413,0.4863 0.088,0.04229 0.206707,0.06399 0.357496,0.06399 h 2.430964 v 1.216302 c -0.290579,0.04896 -1.00786,0.09903 -2.15276,0.14856 l -0.566034,0.03116 c -0.04675,0 -0.100368,0 -0.160872,0 -0.06096,0 -0.141165,-0.0044 -0.239247,-0.01502 -0.099,-0.01062 -0.217705,-0.04786 -0.357494,-0.111837 -0.13979,-0.06232 -0.261246,-0.14856 -0.365745,-0.253164 -0.231913,-0.253165 -0.349704,-0.644875 -0.349704,-1.172903 v -4.613162 c 0,-0.640977 0.158124,-1.081652 0.471161,-1.321462 0.145747,-0.106272 0.288745,-0.180275 0.431285,-0.222006 0.142081,-0.04228 0.255288,-0.06399 0.33962,-0.06399 0.08525,0 0.504618,0.0128 1.259023,0.03671 0.754406,0.02559 1.319064,0.06899 1.690767,0.132423 v 1.225763 z m 5.759791,6.346919 h -1.220065 l -2.535921,-4.950898 v 4.950898 h -1.228316 v -7.743497 h 1.237024 l 2.527213,5.002643 v -5.002643 h 1.220065 v 7.743497 z M 31.392167,49.9994 c 0,1.106691 -0.133373,1.911812 -0.401036,2.413133 -0.08754,0.174154 -0.171872,0.317707 -0.256204,0.42732 -0.08617,0.109613 -0.192498,0.204756 -0.324038,0.285436 -0.129706,0.08123 -0.241538,0.141882 -0.334578,0.18083 -0.09304,0.03783 -0.217705,0.06844 -0.374911,0.08903 -0.19708,0.02893 -0.437702,0.04173 -0.72324,0.04173 h -0.121915 c -0.696656,0 -1.16094,-0.08791 -1.394688,-0.264294 -0.10404,-0.08457 -0.225496,-0.209207 -0.365286,-0.375573 -0.138873,-0.165252 -0.244288,-0.368897 -0.313495,-0.608708 -0.173706,-0.592015 -0.262163,-1.322576 -0.262163,-2.189455 v -4.35777 h 1.220983 v 4.358326 c 0,0.677146 0.05454,1.174572 0.164539,1.49061 0.09946,0.283211 0.293787,0.462373 0.584366,0.54027 0.127873,0.02893 0.312578,0.04228 0.5532,0.04228 0.240622,0 0.443202,-0.0523 0.604992,-0.158019 0.341911,-0.225344 0.5147,-0.864097 0.5147,-1.914592 v -4.358882 h 1.228316 v 4.358326 z"
   id="path8"
   style="fill:#e6e6e6"
   inkscape:connector-curvature="0" />
</g>
</svg>