<?xml version="1.0" encoding="UTF-8" standalone="no"?>
<!-- Generator: Adobe Illustrator 18.1.1, SVG Export Plug-In . SVG Version: 6.00 Build 0)  -->

<svg
   xmlns:dc="http://purl.org/dc/elements/1.1/"
   xmlns:cc="http://creativecommons.org/ns#"
   xmlns:rdf="http://www.w3.org/1999/02/22-rdf-syntax-ns#"
   xmlns:svg="http://www.w3.org/2000/svg"
   xmlns="http://www.w3.org/2000/svg"
   xmlns:sodipodi="http://sodipodi.sourceforge.net/DTD/sodipodi-0.dtd"
   xmlns:inkscape="http://www.inkscape.org/namespaces/inkscape"
   version="1.1"
   id="Capa_1"
   x="0px"
   y="0px"
   viewBox="0 0 16.377 16.377"
   style="enable-background:new 0 0 16.377 16.377;"
   xml:space="preserve"
   inkscape:version="0.48.4 r9939"
   width="100%"
   height="100%"
   sodipodi:docname="avtLoginColor.svg"><metadata
   id="metadata47"><rdf:RDF><cc:Work
       rdf:about=""><dc:format>image/svg+xml</dc:format><dc:type
         rdf:resource="http://purl.org/dc/dcmitype/StillImage" /><dc:title /></cc:Work></rdf:RDF></metadata><defs
   id="defs45" /><sodipodi:namedview
   pagecolor="#ffffff"
   bordercolor="#666666"
   borderopacity="1"
   objecttolerance="10"
   gridtolerance="10"
   guidetolerance="10"
   inkscape:pageopacity="0"
   inkscape:pageshadow="2"
   inkscape:window-width="1536"
   inkscape:window-height="803"
   id="namedview43"
   showgrid="false"
   inkscape:zoom="7.2052268"
   inkscape:cx="-16.03003"
   inkscape:cy="25.086481"
   inkscape:window-x="-8"
   inkscape:window-y="-8"
   inkscape:window-maximized="1"
   inkscape:current-layer="g5" />
<g
   id="g3">
	<g
   id="g5"
   style="fill:#554400">
		<path
   style="fill:#ececec;fill-opacity:1;stroke:none"
   d="M 6.6438895,7.7129684 C 5.9741167,7.4019803 5.1969711,6.3554474 4.9729621,5.4628365 4.9247328,5.2706562 4.839488,5.0433784 4.7835292,4.9577748 4.6019093,4.6799383 4.5643041,4.2629362 4.7072338,4.1117367 4.8200901,3.9923504 4.8249441,3.91459 4.7497512,3.430591 4.6057835,2.5039052 4.6370876,1.9616916 4.859191,1.5349975 5.0924347,1.0869013 5.6524658,0.58664911 6.2167542,0.32234348 6.5695846,0.15708215 6.6887948,0.13572722 7.0387173,0.17509969 c 0.6264916,0.0704914 1.994952,0.5316315 2.3880015,0.80470223 0.6986892,0.48541368 0.9175532,1.30823238 0.6653242,2.50128198 -0.08243,0.3898868 -0.08372,0.5039054 -0.0067,0.5927559 0.12052,0.1390251 0.04344,0.6422629 -0.1446981,0.9447467 -0.07405,0.1190503 -0.158658,0.330094 -0.1880222,0.4689859 C 9.6593098,5.9289913 9.2578655,6.6219926 8.8384565,7.0656877 8.1281563,7.8171179 7.3576444,8.0443785 6.6438901,7.7129684 l -5e-7,0 z"
   id="path3028"
   inkscape:connector-curvature="0" /><path
   style="fill:#008821;fill-opacity:1"
   d="m 4.380069,4.8467239 c 0.042,0.256 0.141,0.417 0.238,0.52 0.231,1.54 1.521,2.97 2.6980001,2.97 1.373,0 2.623,-1.547 2.8649999,-2.967 0.098,-0.101 0.199,-0.264 0.242,-0.522 0.078,-0.289 0.18,-0.791 0.002,-1.025 -0.01,-0.012 -0.02,-0.023 -0.029,-0.034 0.166,-0.606 0.377,-1.858 -0.375,-2.711 -0.066,-0.086 -0.4859999,-0.58799996 -1.3869999,-0.85399996 l -0.427,-0.149 c -0.708,-0.219 -1.154,-0.267 -1.172,-0.27 -0.031,-0.003 -0.065,0 -0.096,0.008 -0.025,0.007 -0.108,0.029 -0.174,0.021 -0.1690001,-0.024 -0.4230001,0.063 -0.4680001,0.08 -0.06,0.023 -1.43,0.573 -1.846,1.84899996 -0.039,0.104 -0.205,0.646 0.016,1.977 -0.033,0.022 -0.063,0.049 -0.088,0.083 -0.178,0.234 -0.078,0.735 10e-4,1.024 z m 0.538,-2.902 c 0.003,-0.006 0.005,-0.013 0.008,-0.021 0.339,-1.05199996 1.541,-1.53799996 1.549,-1.54199996 0.055,-0.021 0.1620001,-0.051 0.2190001,-0.051 0.118,0.016 0.254,-0.005 0.328,-0.022 0.121,0.017 0.497,0.078 1.028,0.242 l 0.432,0.148 c 0.801,0.237 1.141,0.68099996 1.143,0.68399996 0.006,0.007 0.012,0.013 0.016,0.019 0.6949999,0.783 0.338,2.079 0.211,2.457 -0.029,0.089 -0.008,0.187 0.057,0.253 0.033,0.034 0.072,0.057 0.1149999,0.069 0.002,0.123 -0.033,0.348 -0.088,0.545 -0.002,0.009 -0.004,0.019 -0.006,0.028 -0.021,0.139 -0.068,0.24 -0.131,0.286 -0.053,0.04 -0.09,0.101 -0.1,0.167 -0.166,1.19 -1.268,2.629 -2.382,2.629 -0.9380001,0 -2.0550001,-1.325 -2.2130001,-2.624 -0.008,-0.068 -0.043,-0.129 -0.099,-0.17 -0.063,-0.048 -0.11,-0.15 -0.131,-0.287 -0.001,-0.01 -0.003,-0.02 -0.006,-0.029 -0.051,-0.183 -0.084,-0.392 -0.087,-0.518 0.047,-0.005 0.094,-0.021 0.134,-0.053 0.074,-0.058 0.11,-0.152 0.092,-0.245 -0.275,-1.444 -0.089,-1.965 -0.089,-1.965 z"
   id="path7"
   inkscape:connector-curvature="0" />
		<path
   style="fill:#008821;fill-opacity:1"
   d="M12.224,9.363c-0.738-0.487-1.855-0.84-1.855-0.84C9.248,8.127,9.24,7.733,9.24,7.733    c-2.203,4.344-3.876,0.014-3.876,0.014C5.21,8.333,2.941,9.021,2.941,9.021C2.278,9.275,1.998,9.657,1.998,9.657    c-0.98,1.454-1.096,4.689-1.096,4.689c0.013,0.739,0.332,0.816,0.332,0.816c2.254,1.006,5.792,1.185,5.792,1.185    c0.985,0.021,1.894-0.047,2.701-0.154c-0.773-0.723-1.262-1.748-1.262-2.887C8.464,11.192,10.134,9.465,12.224,9.363z"
   id="path9" />
		<path
   style="fill:#37c837"
   d="M12.269,9.963c-1.768,0-3.207,1.438-3.207,3.207c0,1.771,1.439,3.207,3.207,3.207    c1.77,0,3.207-1.437,3.207-3.207C15.476,11.402,14.038,9.963,12.269,9.963z M12.058,14.747c-0.068,0.067-0.178,0.067-0.246,0    l-1.543-1.555c-0.068-0.066-0.068-0.178,0-0.245l0.369-0.369c0.068-0.067,0.178-0.067,0.246,0l1.053,1.061l2.045-2.044    c0.066-0.068,0.178-0.068,0.246,0l0.367,0.367c0.068,0.068,0.068,0.18,0,0.248L12.058,14.747z"
   id="path11" />
	</g>
</g>
<g
   id="g13">
</g>
<g
   id="g15">
</g>
<g
   id="g17">
</g>
<g
   id="g19">
</g>
<g
   id="g21">
</g>
<g
   id="g23">
</g>
<g
   id="g25">
</g>
<g
   id="g27">
</g>
<g
   id="g29">
</g>
<g
   id="g31">
</g>
<g
   id="g33">
</g>
<g
   id="g35">
</g>
<g
   id="g37">
</g>
<g
   id="g39">
</g>
<g
   id="g41">
</g>
</svg>